<?xml version="1.0" standalone="no"?>
<!DOCTYPE svg PUBLIC "-//W3C//DTD SVG 20010904//EN"
 "http://www.w3.org/TR/2001/REC-SVG-20010904/DTD/svg10.dtd">
<svg version="1.0" xmlns="http://www.w3.org/2000/svg"
 width="430.000000pt" height="944.000000pt" viewBox="0 0 430.000000 944.000000"
 preserveAspectRatio="xMidYMid meet">

<g transform="translate(0.000000,944.000000) scale(0.100000,-0.100000)"
     fill="#232D4B" stroke="none">
<path d="M167 9233 c-8 -8 -9 -7490 -1 -7518 3 -11 31 -40 61 -65 31 -25 91
-74 133 -110 100 -84 247 -206 380 -316 58 -47 124 -103 148 -123 24 -20 47
-38 53 -39 5 -2 22 -16 38 -30 51 -48 133 -117 144 -121 14 -5 21 -11 105 -88
37 -35 70 -63 74 -63 9 0 41 -26 116 -95 29 -27 65 -57 79 -65 14 -8 55 -43
92 -77 36 -34 77 -68 90 -75 14 -7 39 -26 56 -43 39 -38 125 -109 137 -114 5
-2 24 -17 42 -35 43 -42 98 -86 108 -86 5 0 28 -20 51 -45 24 -25 52 -45 63
-45 10 0 50 30 88 66 38 36 81 73 95 82 34 22 67 49 108 90 19 17 37 32 41 32
9 0 126 100 130 111 2 5 10 9 17 9 8 0 22 11 33 25 11 14 24 25 28 25 5 0 32
21 60 48 27 26 62 53 75 60 14 8 48 36 75 63 27 26 54 49 61 49 6 0 20 11 31
25 11 14 24 25 28 25 5 0 34 23 64 50 70 64 77 70 87 70 4 0 28 19 53 43 25
23 55 49 66 57 64 46 113 86 157 125 26 25 50 45 53 45 2 0 65 51 140 113 75
61 153 125 173 140 45 35 98 79 223 185 l98 83 0 3770 c0 3493 -1 3769 -16
3769 -10 0 -38 -17 -63 -37 -25 -21 -53 -43 -61 -50 -8 -7 -80 -67 -160 -134
-80 -67 -172 -142 -205 -168 -32 -25 -74 -61 -92 -78 -19 -18 -36 -33 -39 -33
-7 0 -97 -75 -141 -117 -18 -18 -36 -33 -40 -33 -8 0 -81 -60 -130 -108 -22
-20 -50 -43 -64 -50 -13 -7 -55 -42 -92 -77 -37 -35 -76 -66 -85 -70 -9 -3
-49 -36 -88 -73 -39 -37 -82 -73 -97 -81 -14 -8 -48 -36 -76 -62 -27 -27 -54
-49 -59 -49 -6 0 -19 -11 -29 -23 -10 -13 -24 -26 -30 -28 -6 -2 -33 -23 -60
-47 -26 -23 -75 -64 -109 -90 -33 -26 -73 -59 -90 -75 -44 -42 -103 -85 -125
-92 -24 -8 -67 21 -203 138 -27 23 -53 44 -59 46 -13 5 -26 15 -65 51 -58 54
-140 120 -148 120 -5 0 -31 23 -58 49 -27 27 -61 55 -75 63 -13 7 -48 34 -75
61 -28 26 -55 47 -60 47 -4 0 -17 11 -28 25 -11 14 -23 25 -28 25 -5 0 -24 15
-43 33 -45 44 -99 87 -109 87 -5 0 -21 13 -36 28 -15 16 -55 50 -90 76 -35 27
-75 59 -90 73 -45 42 -109 93 -116 93 -4 0 -19 13 -34 28 -29 30 -106 92 -115
92 -3 0 -24 18 -47 40 -53 51 -125 110 -134 110 -4 0 -19 13 -34 28 -15 16
-56 50 -92 77 -36 27 -83 65 -105 86 -83 78 -140 111 -158 92z"/>
</g>
</svg>
